<?xml version="1.0" encoding="UTF-8" standalone="no"?>
<svg
   width="639.3761"
   height="179.79182"
   viewBox="0 0 639.3761 179.79182"
   version="1.1"
   xml:space="preserve"
   id="SVGRoot"
   xmlns="http://www.w3.org/2000/svg"
   xmlns:svg="http://www.w3.org/2000/svg"><defs
   id="defs4" />

<style
   type="text/css"
   id="style1">
g.prefab path {
  vector-effect:non-scaling-stroke;
  -inkscape-stroke:hairline;
  fill: none;
  fill-opacity: 1;
  stroke-opacity: 1;
  stroke: #00349c;
}
</style>

<path
   id="path4"
   style="fill:none;stroke:#000000;stroke-width:10;stroke-linecap:round;stroke-linejoin:round;stroke-dasharray:none"
   d="m 130.12374,41.212955 c -42.910089,-36.2131592 0,0 -42.910089,-36.2131592 -36.45066,42.7085192 0,0 -36.45066,42.7085192 l 0.036,0.44102 5.36442,65.543145 30.02812,-29.427035 7.3e-4,-1e-4 z M 129.7652,174.79198 c 52.78615,-19.13867 0,0 52.78615,-19.13867 -18.84553,-52.89155 0,0 -18.84553,-52.89155 l -0.4003,-0.18862 -59.48895,-28.031165 10.53532,40.701905 -2.7e-4,7.3e-4 z M 14.817764,107.39995 c -9.8178394,55.28362 0,0 -9.8178394,55.28362 55.2282964,10.12442 55.5917764,9.87205 55.2282964,10.12442 l 0.36348,-0.25237 54.019749,-37.50397 -40.516669,-11.22664 -7.3e-4,-3.9e-4 z" /><path
   id="path21"
   style="fill:#000000;stroke-width:8.7592;stroke-linecap:round;stroke-linejoin:round"
   d="m 562.01657,47.313095 -12.75022,7.36134 a 1.3799669,1.3799669 0 0 1 -2.06994,-1.19509 v -14.02899 a 1.3799672,1.3799672 0 0 1 2.06994,-1.19509 l 12.7502,7.36131 a 0.97948393,0.97948393 0 0 1 2e-5,1.69652 z m -238.79209,-0.99563 a 7.615009,7.6897582 0 0 1 7.77664,-7.52301 h 205.77019 a 1.7721703,1.789566 0 0 1 1.77218,1.78958 v 11.79682 a 1.7721703,1.789566 0 0 1 -1.77218,1.78957 H 331.00112 a 7.7766257,7.8529612 0 0 1 -7.77664,-7.85296 z M 212.53253,140.29979 v -5.97089 h 1.84812 c 3.22241,0 5.97091,-0.56868 8.24554,-1.70598 2.27464,-1.2321 3.41194,-4.07538 3.41194,-8.52986 V 54.432515 c 0,-4.17014 -1.1847,-6.82387 -3.5541,-7.96119 -2.27462,-1.13732 -4.97576,-1.70598 -8.10338,-1.70598 h -1.84812 v -5.97089 h 26.01606 l 50.89485,78.616885 V 54.432515 c 0,-4.17014 -1.18472,-6.82387 -3.55412,-7.96119 -2.27463,-1.13732 -4.97575,-1.70598 -8.10337,-1.70598 h -1.84814 v -5.97089 h 35.68326 v 5.97089 h -1.84815 c -3.22237,0 -5.9709,0.61604 -8.24552,1.84812 -2.27463,1.13733 -3.41195,3.93323 -3.41195,8.38771 V 140.29979 H 288.02179 L 234.71016,58.413145 v 65.679915 c 0,4.45448 1.13731,7.29776 3.41195,8.52986 2.27462,1.1373 5.02313,1.70598 8.24552,1.70598 h 1.84815 v 5.97089 z m 142.08851,1.42165 c -10.23581,0 -18.29179,-3.26979 -24.16793,-9.80934 -5.87613,-6.53958 -8.81418,-16.49106 -8.81418,-29.85452 0,-13.268675 2.79589,-23.125395 8.38768,-29.570185 5.68658,-6.53957 14.02689,-9.80934 25.02093,-9.80934 10.23583,0 18.29181,3.26977 24.16794,9.80934 5.87613,6.44479 8.81418,16.30151 8.81418,29.570185 0,13.36346 -2.84327,23.31494 -8.52987,29.85452 -5.59179,6.53955 -13.88469,9.80934 -24.87875,9.80934 z m 0.28433,-7.39257 c 7.10822,0 12.08397,-2.70112 14.92726,-8.10335 2.93807,-5.49702 4.4071,-13.553 4.4071,-24.16794 0,-10.614925 -1.46903,-18.576155 -4.4071,-23.883605 -2.93806,-5.30747 -7.9612,-7.96121 -15.06941,-7.96121 -7.10823,0 -12.13137,2.65374 -15.06942,7.96121 -2.8433,5.30745 -4.26494,13.26868 -4.26494,23.883605 0,10.61494 1.46904,18.67092 4.4071,24.16794 2.93808,5.40223 7.96121,8.10335 15.06941,8.10335 z m 81.74437,7.39257 c -10.3306,0 -18.43398,-3.41196 -24.31008,-10.23584 -5.78136,-6.82389 -8.67205,-16.39628 -8.67205,-28.71721 0,-13.268655 2.74852,-23.267565 8.24555,-29.996665 5.49701,-6.72911 13.26868,-10.09367 23.31497,-10.09367 9.19327,0 16.39626,2.84329 21.60894,8.52987 5.30749,5.68657 7.96122,14.16905 7.96122,25.4474 v 6.539565 h -47.34073 c 0.18955,10.33062 2.03769,17.86533 5.54441,22.60413 3.60151,4.64405 8.81419,6.96605 15.63807,6.96605 4.92837,0 9.09853,-0.99514 12.51048,-2.98545 3.50671,-2.08508 6.11306,-4.4071 7.81903,-6.96604 0.66344,0.28432 1.27947,0.85298 1.84814,1.70597 0.56865,0.85297 0.85298,1.89552 0.85298,3.1276 0,1.89554 -0.90038,3.93322 -2.70112,6.11307 -1.80074,2.17986 -4.54925,4.07538 -8.24553,5.68658 -3.69628,1.51643 -8.38771,2.27464 -14.07428,2.27464 z m 13.78994,-46.203445 c 0,-7.58208 -1.18469,-13.64775 -3.5541,-18.19701 -2.27462,-4.64404 -6.25522,-6.96606 -11.94181,-6.96606 -5.21268,0 -9.28806,2.17987 -12.22611,6.53957 -2.84331,4.26493 -4.5019,10.47277 -4.97578,18.6235 z m 51.32133,46.203445 c -7.10822,0 -12.79479,-1.27949 -17.05972,-3.83844 -4.26492,-2.55896 -6.39739,-6.30263 -6.39739,-11.23098 0,-2.55896 0.52127,-4.54927 1.56381,-5.97091 1.04254,-1.42165 2.22724,-2.4168 3.55411,-2.98545 1.42165,-0.56865 2.70112,-0.85297 3.83843,-0.85297 0,4.92834 1.08993,9.19328 3.2698,12.79477 2.27462,3.50673 6.3026,5.26009 12.08396,5.26009 5.02313,0 8.86159,-1.18472 11.51531,-3.5541 2.74849,-2.4642 4.12275,-5.59181 4.12275,-9.38286 0,-2.36941 -0.52126,-4.31232 -1.56379,-5.82875 -0.94777,-1.51642 -2.70113,-2.98545 -5.26009,-4.4071 -2.46418,-1.5164 -6.0183,-3.26977 -10.66232,-5.26006 -4.83361,-2.17984 -8.86157,-4.26494 -12.08399,-6.25523 -3.12761,-2.085095 -5.49699,-4.454505 -7.10819,-7.108225 -1.51643,-2.74852 -2.27462,-6.16045 -2.27462,-10.23583 0,-6.44478 2.41678,-11.37316 7.25035,-14.78509 4.92837,-3.50674 11.42055,-5.26008 19.47654,-5.26008 6.82388,0 11.98918,1.27947 15.4959,3.83843 3.50671,2.55894 5.26008,5.63918 5.26008,9.24069 0,2.55896 -0.90038,4.64403 -2.70113,6.25522 -1.70596,1.51643 -4.21754,2.27462 -7.53472,2.27462 0,-4.73881 -0.99512,-8.43508 -2.98544,-11.08881 -1.9903,-2.65374 -5.07053,-3.9806 -9.24068,-3.9806 -4.83358,0 -8.2929,1.08993 -10.37799,3.26977 -2.08508,2.08509 -3.12761,4.78621 -3.12761,8.10339 0,3.60149 1.32686,6.39738 3.98059,8.38767 2.7485,1.89554 7.29777,4.12277 13.64779,6.68175 5.02313,2.08508 9.09851,4.17014 12.22613,6.255225 3.12761,2.08507 5.40223,4.50188 6.82388,7.25038 1.51643,2.74852 2.27462,6.11308 2.27462,10.09367 0,7.39254 -2.55896,12.98434 -7.67685,16.77539 -5.11794,3.69628 -11.89443,5.54442 -20.32952,5.54442 z m 37.53139,-1.42165 v -5.97092 h 1.84812 c 3.12763,0 5.82875,-0.52126 8.10339,-1.5638 2.36939,-1.13732 3.55411,-3.79105 3.55411,-7.96119 V 79.737775 c 0,-4.17015 -1.18472,-6.82388 -3.55411,-7.9612 -2.27464,-1.13733 -4.97576,-1.70598 -8.10339,-1.70598 h -0.42647 v -5.9709 h 25.44741 v 59.993365 c 0,4.45448 1.13733,7.29776 3.41194,8.52986 2.27462,1.1373 5.02316,1.70595 8.24553,1.70595 h 1.84814 v 5.97092 z m 72.07731,1.42165 c -7.10819,0 -12.79478,-1.27949 -17.0597,-3.83844 -4.26494,-2.55896 -6.3974,-6.30263 -6.3974,-11.23098 0,-2.55896 0.52126,-4.54927 1.56379,-5.97091 1.04255,-1.42165 2.22726,-2.4168 3.55413,-2.98545 1.42165,-0.56865 2.70111,-0.85297 3.83843,-0.85297 0,4.92834 1.08992,9.19328 3.26978,12.79477 2.27462,3.50673 6.30262,5.26009 12.08396,5.26009 5.02314,0 8.86157,-1.18472 11.51532,-3.5541 2.74852,-2.4642 4.12275,-5.59181 4.12275,-9.38286 0,-2.36941 -0.52125,-4.31232 -1.56379,-5.82875 -0.94777,-1.51642 -2.70113,-2.98545 -5.26007,-4.4071 -2.4642,-1.5164 -6.0183,-3.26977 -10.66235,-5.26006 -4.83357,-2.17984 -8.86158,-4.26494 -12.08396,-6.25523 -3.12762,-2.085095 -5.49701,-4.454505 -7.10822,-7.108225 -1.51641,-2.74852 -2.27463,-6.16045 -2.27463,-10.23583 0,-6.44478 2.41681,-11.37316 7.2504,-14.78509 4.92835,-3.50674 11.42053,-5.26008 19.4765,-5.26008 6.82388,0 11.98918,1.27947 15.49591,3.83843 3.50674,2.55894 5.26008,5.63918 5.26008,9.24069 0,2.55896 -0.90037,4.64403 -2.70112,6.25522 -1.70598,1.51643 -4.21754,2.27462 -7.5347,2.27462 0,-4.73881 -0.99515,-8.43508 -2.98546,-11.08881 -1.99032,-2.65374 -5.07053,-3.9806 -9.24069,-3.9806 -4.83358,0 -8.29292,1.08993 -10.37798,3.26977 -2.08508,2.08509 -3.12762,4.78621 -3.12762,8.10339 0,3.60149 1.32686,6.39738 3.98059,8.38767 2.74852,1.89554 7.29777,4.12277 13.64779,6.68175 5.02314,2.08508 9.09852,4.17014 12.22612,6.255225 3.12762,2.08507 5.40225,4.50188 6.82388,7.25038 1.51645,2.74852 2.27464,6.11308 2.27464,10.09367 0,7.39254 -2.55895,12.98434 -7.67687,16.77539 -5.11791,3.69628 -11.89442,5.54442 -20.32951,5.54442 z" /></svg>
